<?xml version="1.0" encoding="UTF-8"?>
<svg width="552" height="552" viewBox="0 0 552.00208 446.1871" xmlns="http://www.w3.org/2000/svg">
 <defs>
  <radialGradient id="c" cx="-213.38" cy="402.94" r="37.908" gradientTransform="matrix(2.2728 .69528 -.52455 1.7028 482.96 -135.01)" gradientUnits="userSpaceOnUse">
   <stop stop-color="#fff" offset="0"/>
   <stop stop-color="#fbfbfb" offset=".18"/>
   <stop stop-color="#cbcbcb" offset=".38101"/>
   <stop stop-color="#a7a7a7" offset=".5"/>
   <stop stop-color="#aaa" offset=".57098"/>
   <stop stop-color="#fff" offset="1"/>
  </radialGradient>
  <radialGradient id="b" cx="87.269" cy="214.07" r="97.161" gradientTransform="matrix(-1.626 1.4755 -1.3197 -1.3395 660.34 712.46)" gradientUnits="userSpaceOnUse">
   <stop stop-color="#fff" offset="0"/>
   <stop stop-color="#fbfbfb" offset=".25468"/>
   <stop stop-color="#cbcbcb" offset=".46286"/>
   <stop stop-color="#a7a7a7" offset=".55956"/>
   <stop stop-color="#aaa" offset=".70522"/>
   <stop stop-color="#fff" offset="1"/>
  </radialGradient>
  <radialGradient id="a" cx="121.24" cy="276.67" r="167.98" gradientTransform="matrix(-1.9869 1.6096 -1.7948 -2.2155 1562.4 715.4)" gradientUnits="userSpaceOnUse">
   <stop stop-color="#fff" offset="0"/>
   <stop stop-color="#fbfbfb" offset=".18"/>
   <stop stop-color="#cbcbcb" offset=".45049"/>
   <stop stop-color="#a7a7a7" offset=".54451"/>
   <stop stop-color="#aaa" offset=".66102"/>
   <stop stop-color="#fff" offset="1"/>
  </radialGradient>
 </defs>
 <g transform="matrix(-1 0 0 1 647.39 -262.11)" stroke="#000" stroke-linecap="square">
  <path d="m304.84 477.27c-24.716 4.4754-40.77 26.045-34.833 56.207 3.2581 16.552 3.3227 25.065 6.5307 31.507 2.7876 5.5984 8.3686 10.277 15.224 9.2523 25.698-3.8402 27.379-17.179 25.006-32.95-5.2184-34.676 15.788-30.13 13.744-43.229-1.1963-7.6658-5.2222-22.422-25.672-20.787z" stroke-width="9"/>
  <path d="m147.58 513.62c24.395-5.9823 47.844 7.1755 54.71 37.14 3.768 16.443 7.177 24.244 6.8721 31.434-0.26491 6.2484-3.4558 12.795-10.134 14.652-25.033 6.9626-32.003-4.5339-36.261-19.904-9.3617-33.794-26.694-21.084-30.164-33.879-2.0306-7.4881-4.3656-22.604 14.976-29.443z" stroke-width="9"/>
  <path transform="matrix(-.15118 .84068 -.84361 -.1517 504.25 866.08)" d="m-172.77 412.3c0 18.407-14.618 33.33-32.649 33.33s-32.649-14.922-32.649-33.33 14.618-33.33 32.649-33.33 32.649 14.922 32.649 33.33z" fill="url(#c)" stroke-width="10.518"/>
  <path d="m232.19 653.96c-45.951-6.0075-64.43-28.785-63.888-79.856l3.624-26.351c17.195-20.219 47.525-40.342 88.582-18.85 59.659 31.23 88.356 66.449 89.293 88.267-6.7912 20.755-43.664 46.458-117.61 36.79z" fill="url(#b)" stroke-width="9"/>
  <path d="m237.61 604.42c-6.2327-24.332-18.013-48.324-47.673-40.244-16.276 4.4342-35.646 14.631-41.842 18.291-5.3845 3.1811-9.6515 9.0826-8.1392 15.847 5.6694 25.358 31.338 16.557 46.899 13.061 34.214-7.6865 1.2545 23.115 31.858 20.138 7.7221-0.75097 21.99-6.8134 18.897-27.094z" stroke-width="9"/>
  <g transform="translate(-457.88 115.43)">
   <path transform="matrix(.42187 .07176 -.07162 .42326 830.15 175.77)" d="m122.86 105.22c0 59.173-53.726 107.14-120 107.14s-120-47.969-120-107.14 53.726-107.14 120-107.14 120 47.969 120 107.14z" stroke-width="20.998"/>
   <path d="m989.04 461.62c-44.485 68.804-156.01 56.79-231.47-2.3226-72.272-56.614-85.675-128.27-32.556-190.63 54.386-63.851 145.17-82.809 222.21-32.901s86.298 157.05 41.813 225.85z" fill="url(#a)" stroke-width="9"/>
   <path transform="matrix(.00116 .45681 -.46015 -.02645 1109.6 819.59)" d="m-868.57 158.08c0 50.495-51.167 91.429-114.29 91.429s-114.29-40.934-114.29-91.429 51.167-91.429 114.29-91.429 114.29 40.934 114.29 91.429z" stroke-width="19.632"/>
   <path d="m793.79 407.6c-4.3632 6.7484-15.944 7.0174-25.85 0.60042s-14.405-17.102-10.041-23.85 17.79-9.8731 27.696-3.4562 12.558 19.958 8.1952 26.706z" stroke-width="9"/>
   <path d="m741.44 381.84s-21.481 16.516-1.2302 30.545c9.5826 6.6505 28.455-3.4339 28.455-3.4339s-5.4743 15.139 3.482 29.224c7.991 12.567 16.873 15.331 26.613 16.562 13.354 1.6874 20.333-8.0177 20.333-8.0177" fill="none" stroke-width="9"/>
   <path d="m750.59 280.39c-37.139 1.5933-59.692 27.09-55.394 50.007 3.1558 16.827 10.631 31.388 29.587 33.81 27.422 3.5039 28.772-13.601 53.984-16.337 22.156-2.4043 36.129-19.574 34.324-34.404-2.158-17.733-25.362-34.669-62.502-33.076z" stroke-width="9"/>
   <path d="m790.13 336.09c-9.8396 9.504-24.607 9.0397-32.964-1.0364s-7.1527-25.967 2.6869-35.471 24.607-9.0397 32.964 1.0364 7.1527 25.967-2.6869 35.471z" fill="#fff" stroke-width="9"/>
   <path d="m767.28 311.59c5.5708-0.24068 10.675 2.779 14.657 14.733" fill="none" stroke-width="9"/>
   <path d="m919.84 383.22c19.372 28.491 18.179 63.873-3.4515 87.081-24.399 26.179-65.409 14.087-80.027-7.4992-9.961-14.71 2.4803-38.763-1.5108-55.752-4.6004-19.582 2.9341-34.404 19.086-48.357 19.424-16.779 46.531-3.964 65.903 24.527z" stroke-width="9"/>
   <path d="m901.51 404.62c-6.8395 13.054-23.571 17.751-37.347 10.484s-19.406-23.76-12.567-36.814 23.571-17.751 37.347-10.484 19.406 23.76 12.567 36.814z" fill="#fff" stroke-width="9"/>
   <path d="m860.83 386.06c13.909 2.6951 20.147 9.238 23.728 13.857" fill="none" stroke-width="9"/>
  </g>
  <path d="m417.95 631.97c-9.5048 23.25-33.935 34.481-62.21 22.416-15.516-6.6205-23.83-8.4494-29.467-12.924-4.8984-3.8882-8.3174-10.318-5.8932-16.812 9.0871-24.343 22.484-23.22 37.421-17.627 32.84 12.298 32.75-9.1953 45.14-4.4787 7.2509 2.7604 20.851 9.7594 15.01 29.426z" stroke-width="9"/>
 </g>
</svg>
