<?xml version="1.0" encoding="UTF-8"?>
<svg viewBox="0 0 744.09448819 1052.3622047" xmlns="http://www.w3.org/2000/svg" xmlns:xlink="http://www.w3.org/1999/xlink">
 <defs>
  <linearGradient id="a">
   <stop stop-color="#fff" offset="0"/>
   <stop stop-color="#fbfbfb" offset=".18"/>
   <stop stop-color="#cbcbcb" offset=".38101"/>
   <stop stop-color="#a7a7a7" offset=".5"/>
   <stop stop-color="#aaa" offset=".57098"/>
   <stop stop-color="#fff" offset="1"/>
  </linearGradient>
  <radialGradient id="c" cx="121.24" cy="276.67" r="167.98" gradientTransform="matrix(-1.1123 2.3025 -2.5674 -1.2402 1164.8 575.53)" gradientUnits="userSpaceOnUse">
   <stop stop-color="#fff" offset="0"/>
   <stop stop-color="#fbfbfb" offset=".18"/>
   <stop stop-color="#cbcbcb" offset=".45049"/>
   <stop stop-color="#a7a7a7" offset=".54451"/>
   <stop stop-color="#aaa" offset=".66102"/>
   <stop stop-color="#fff" offset="1"/>
  </radialGradient>
  <radialGradient id="d" cx="-213.38" cy="402.94" r="37.908" gradientTransform="matrix(2.2728 .69528 -.52455 1.7028 482.96 -135.01)" gradientUnits="userSpaceOnUse" xlink:href="#a"/>
  <radialGradient id="b" cx="72.331" cy="206.23" r="97.161" gradientTransform="matrix(1.3408 1.7387 -1.4407 1.2085 484.96 179.47)" gradientUnits="userSpaceOnUse" xlink:href="#a"/>
 </defs>
 <path d="m264.03 678.49a12.37 7.6422 0 0 0 -11.176 4.8578l-47.574 72.253a12.37 7.6422 0 1 0 22.904 5.7584l47.597-72.253a12.37 7.6422 0 0 0 -11.75 -10.616z" fill="#ff0" stroke="#000" stroke-width="7.248"/>
 <path d="m358.31 492.33a12.294 12.597 30.45 0 0 -9.6521 4.2249c-37.08 40.277-65.851 101-69.182 163.52a12.294 12.597 30.45 1 0 24.698 0.82711c2.9564-55.48 29.68-111.93 62.419-147.49a12.294 12.597 30.45 0 0 -8.282 -21.08z" fill="#fdff14" stroke="#000" stroke-linejoin="round" stroke-width="7.7952"/>
 <path d="m397.49 541.84a12.368 12.932 3.1122 0 0 -10.897 6.6725c-23.333 42.46-34.105 76.144-42.568 111.33a12.368 12.932 3.1122 1 0 23.979 6.2107c8.1743-33.988 17.845-64.377 40.02-104.73a12.368 12.932 3.1122 0 0 -10.533 -19.486z" fill="#fdff14" stroke="#000" stroke-linejoin="round" stroke-width="7.9222"/>
 <path d="m362.23 539.96a13.956 12.368 88.049 0 0 -10.881 7.0761c-22.623 44.234-37.602 85.135-38.869 121.44a13.958 12.37 88.05 1 0 24.725 1.3205c0.98171-28.121 13.98-66.374 35.605-108.66a13.956 12.368 88.049 0 0 -10.58 -21.178z" fill="#fdff14" stroke="#000" stroke-linejoin="round" stroke-width="8.2297"/>
 <path d="m339.09 529.45a9.8638 16.777 7.2787 1 0 -3.0012 33.344l97.952 1.8475a9.8638 16.777 7.2787 1 0 2.986 -33.374l-97.937-1.8177z" fill="#fdff14" stroke="#000" stroke-linejoin="round" stroke-width="8.5438"/>
 <path d="m311.93 679.84a12.37 7.6422 0 0 0 -12.501 8.9651l19.039 73.085a12.371 7.643 0 1 0 24.428 -2.4289l-19.039-73.085a12.37 7.6422 0 0 0 -11.927 -6.5362z" fill="#d4aa00" stroke="#000" stroke-width="7.248"/>
 <path transform="matrix(.74366 .4202 -.42167 .74625 700.49 412.69)" d="m-172.77 412.3a32.649 33.33 0 1 1 -65.299 0 32.649 33.33 0 1 1 65.299 0z" fill="url(#d)" stroke="#000" stroke-linecap="square" stroke-width="10.518"/>
 <path d="m471.39 498.62a12.36 12.97 2.2458 0 0 -7.4629 3.3606c-46.338 43.221-73.554 110.81-84.228 161.72a12.36 12.97 2.2458 1 0 24.145 5.4653c9.7158-46.344 36.328-110.4 76.458-147.83a12.36 12.97 2.2458 0 0 -8.912 -22.719z" fill="#fdff14" stroke="#000" stroke-linejoin="round" stroke-width="7.9311"/>
 <path d="m326.48 717.31c-3.772 4.1822 2.3078 22.943 7.6443 26.771 38.267-0.15168 63.301-0.8058 72.522-0.8366-3.4448-11.229-5.4659-17.479-7.1414-25.408-9.2338 0.0308-34.755-0.67844-73.025-0.52675z" fill="#d4aa00" stroke="#000" stroke-linecap="round" stroke-linejoin="round" stroke-width="9"/>
 <path d="m358.83 726.05-72.577 0.65786a3.1808 4.3064 0 1 0 0 8.612s0.5094-7e-3 72.621-0.65786a3.1808 4.3064 0 1 0 -0.0442 -8.612z" fill="#a80" stroke="#000" stroke-linecap="round" stroke-linejoin="round" stroke-width="9"/>
 <path d="m243.45 716.65c-6.6623 4.1034-13.886 22.991-11.325 26.931 37.811 0.64762 56.365 0.97434 65.472 1.1361 4.5154-11.301 7.4132-18.967 11.347-26.931-9.1196-0.16202-27.68-0.48846-65.494-1.1361z" fill="#fc0" stroke="#000" stroke-linecap="round" stroke-linejoin="round" stroke-width="9"/>
 <path d="m340.46 681.17a12.37 7.6422 0 0 0 -11.176 4.8578l-47.574 72.253a12.37 7.6422 0 1 0 22.904 5.7584l47.597-72.253a12.37 7.6422 0 0 0 -11.75 -10.616z" fill="#ff0" stroke="#000" stroke-width="7.248"/>
 <path d="m393.48 683.94a12.37 7.6422 0 0 0 -12.302 9.0606l19.039 67.204a12.37 7.6422 0 1 0 24.362 -2.6336l-19.039-67.204a12.37 7.6422 0 0 0 -12.059 -6.427z" fill="#d4aa00" stroke="#000" stroke-width="7.248"/>
 <path d="m230.84 607.56c21.941 12.227 48.037 5.7468 62.59-21.331 7.9867-14.859 13.339-21.479 14.949-28.493 1.3987-6.0956 0.0548-13.253-5.8933-16.812-22.297-13.342-32.061-4.1002-40.236 9.5945-17.974 30.11-31.324 13.265-38.057 24.685-3.9405 6.6834-10.194 20.642 6.6472 32.357z" stroke="#000" stroke-linecap="square" stroke-width="9"/>
 <path d="m191.12 671.83c-3.6827-24.846 11.603-46.967 42.077-51.01 16.723-2.2191 24.807-4.8864 31.938-3.9126 6.1965 0.84611 12.417 4.6332 13.644 11.455 4.5993 25.573-7.4968 31.441-23.197 34.248-34.519 6.1714-23.48 24.613-36.543 26.875-7.6447 1.3238-22.912 2.2399-27.919-17.655z" stroke="#000" stroke-linecap="square" stroke-width="9"/>
 <path d="m392.43 601.57c-9.6602 45.324-33.841 61.924-84.706 57.302l-25.977-5.7182c-16.856-2.4025-45.291-34.94-25.54-76.862 28.202-59.858 87.126-95.707 108.95-94.897 20.146 8.428 42.82 47.237 27.274 120.17z" fill="url(#b)" stroke="#000" stroke-linecap="square" stroke-width="9"/>
 <g transform="translate(-34.665 -153.75)" stroke="#000" stroke-linecap="square">
  <path transform="matrix(.41226 -.11472 .11545 .41347 272.52 399.08)" d="m122.86 105.22c0 59.173-53.726 107.14-120 107.14s-120-47.969-120-107.14 53.726-107.14 120-107.14 120 47.969 120 107.14z" stroke-width="20.998"/>
  <path d="m538.02 590.06c-10.949 81.197-116.97 117.82-210.42 96.472-89.501-20.446-132.14-79.571-110.64-158.62 22.017-80.932 96.084-136.75 187.05-124.4s144.96 105.35 134.01 186.54z" fill="url(#c)" stroke-width="9"/>
  <path transform="matrix(.19558 .41282 -.4276 .17203 799.53 862.6)" d="m-868.57 158.08c0 50.495-51.167 91.429-114.29 91.429s-114.29-40.934-114.29-91.429 51.167-91.429 114.29-91.429 114.29 40.934 114.29 91.429z" stroke-width="19.632"/>
  <path d="m338.35 624.32c-1.0739 7.964-11.438 13.139-23.133 11.552s-20.316-9.3394-19.242-17.303 11.892-16.509 23.588-14.922 19.862 12.71 18.788 20.674z" stroke-width="9"/>
  <path d="m280.01 623.31s-12.402 24.091 11.895 28.161c11.502 1.9365 24.284-15.225 24.284-15.225s1.4939 16.029 15.596 24.959c12.582 7.9678 21.795 6.686 31.132 3.6516 12.801-4.16 14.982-15.913 14.982-15.913" fill="none" stroke-width="9"/>
  <g transform="matrix(.4063 .19054 -.18706 .42577 397.04 339.17)" stroke-width="19.704">
   <path d="m-141.12 505.79c-51.719 63.679-41.909 136.03 2.8948 160.38 32.897 17.881 68.312 25.497 100.15-2.5615 46.051-40.59 19.286-66.313 51.617-111.81 28.411-39.985 20.026-86.695-7.5366-104.07-32.957-20.776-95.402-5.613-147.12 58.066z"/>
   <g transform="translate(0 -12.379)">
    <path d="m10.378 529.19c1.5579 29.341-20.852 53.154-50.022 53.154s-54.108-23.813-55.666-53.154 20.852-53.154 50.022-53.154 54.108 23.813 55.666 53.154z" fill="#fff"/>
    <path d="m-71.101 544.24c-0.02051-0.0202 15.062-42.327 40.347-36.442 18.695 4.3516 22.019 34.62 22.019 34.62" fill="none"/>
   </g>
  </g>
  <g transform="matrix(.65946 -.06833 .06235 .70212 706.63 569.41)" stroke-width="13.166">
   <path d="m-394.82-68.084c42.228 29.076 58.906 77.018 40.319 118.24-20.967 46.494-85.327 49.521-117.24 27.464-21.744-15.03-16.611-53.074-31.083-73.954-16.682-24.068-13.705-47.448 1.928-73.704 18.8-31.575 63.845-27.117 106.07 1.9589z"/>
   <g transform="matrix(.99025 .13929 -.13929 .99025 -733.65 -477.41)">
    <path d="m383.04 397.1c0 20.891-19.083 37.846-42.597 37.846s-42.597-16.955-42.597-37.846 19.083-37.846 42.597-37.846 42.597 16.955 42.597 37.846z" fill="#fff"/>
    <path d="m309.84 403.6s5.8307-27.502 22.615-26.594c20.8 1.1255 24.611 25.412 24.611 25.412" fill="none"/>
   </g>
  </g>
 </g>
 <path d="m420.99 619.05c17.306-18.205 17.528-45.092-5.0721-65.93-12.402-11.435-17.48-18.268-23.873-21.574-5.5553-2.8726-12.822-3.3534-17.75 1.521-18.474 18.272-11.955 30.03-0.7277 41.358 24.685 24.906 5.0466 33.64 14.43 43.005 5.4916 5.4807 17.453 15.013 32.993 1.62z" stroke="#000" stroke-linecap="square" stroke-width="9"/>
 <path transform="matrix(.9988,.04887,-.05385,.99855,0,0)" d="m280.61 637.54h164.56a14.25 14.25 0 0 1 14.25 14.25v7.7727a14.25 14.25 0 0 1 -14.25 14.25h-164.56a14.25 14.25 0 0 1 -14.25 -14.25v-7.7727a14.25 14.25 0 0 1 14.25 -14.25" fill="#ff0" stroke="#000" stroke-linecap="round" stroke-linejoin="round" stroke-width="9.0001"/>
 <path d="m278.09 674.85c-8.007-23.807 3.1381-48.277 32.421-57.632 16.069-5.1336 23.556-9.1848 30.747-9.4839 6.2486-0.26 13.039 2.3707 15.45 8.8695 9.0373 24.361-1.8342 32.27-16.793 37.802-32.89 12.163-18.771 28.368-31.23 32.899-7.2914 2.6514-22.158 6.2457-30.595-12.455z" stroke="#000" stroke-linecap="square" stroke-width="9"/>
</svg>
