<?xml version="1.0" encoding="UTF-8"?>
<svg viewBox="0 0 655.70941 553.46326" xmlns="http://www.w3.org/2000/svg" xmlns:xlink="http://www.w3.org/1999/xlink">
 <defs>
  <clipPath id="h">
   <path d="m-456.09-221.88c125.12 216.79 121.47 360.05 55.55 444.88l-54.456 3.6347-23.946 57.93c-88.245 36.703-198.28-13.688-319.44-223.61-143.25-248.2-244.82-602.92-153.28-703.53 111.06-66.8 352.32 172.49 495.57 420.69z"/>
  </clipPath>
  <linearGradient id="a">
   <stop stop-color="#fff" offset="0"/>
   <stop stop-color="#fbfbfb" offset=".18"/>
   <stop stop-color="#cbcbcb" offset=".4505"/>
   <stop stop-color="#a7a7a7" offset=".5445"/>
   <stop stop-color="#aaa" offset=".661"/>
   <stop stop-color="#fff" offset="1"/>
  </linearGradient>
  <linearGradient id="b">
   <stop stop-color="#fff" offset="0"/>
   <stop stop-color="#fbfbfb" offset=".18"/>
   <stop stop-color="#cbcbcb" offset=".381"/>
   <stop stop-color="#a7a7a7" offset=".5"/>
   <stop stop-color="#aaa" offset=".571"/>
   <stop stop-color="#fff" offset="1"/>
  </linearGradient>
  <radialGradient id="g" cx="403.85" cy="426.22" r="121.05" gradientTransform="matrix(1.812 .00312 -.01146 6.6513 -1473.2 -2296.6)" gradientUnits="userSpaceOnUse">
   <stop stop-color="#fff" offset="0"/>
   <stop stop-color="#fbfbfb" offset=".4443"/>
   <stop stop-color="#cbcbcb" offset=".5661"/>
   <stop stop-color="#a7a7a7" offset=".6642"/>
   <stop stop-color="#aaa" offset=".7153"/>
   <stop stop-color="#fff" offset="1"/>
  </radialGradient>
  <radialGradient id="f" cx="121.24" cy="276.67" r="167.98" gradientTransform="matrix(-.97439 2.3642 -2.6362 -1.0865 210.62 -64.714)" gradientUnits="userSpaceOnUse" xlink:href="#a"/>
  <radialGradient id="e" cx="-213.38" cy="402.94" r="37.908" gradientTransform="matrix(2.2728 .69528 -.52455 1.7028 482.96 -135.01)" gradientUnits="userSpaceOnUse" xlink:href="#b"/>
  <radialGradient id="d" cx="72.331" cy="206.23" r="97.161" gradientTransform="matrix(1.724 -1.3596 1.224 1.4275 44.826 515.88)" gradientUnits="userSpaceOnUse" xlink:href="#b"/>
  <radialGradient id="c" cx="121.24" cy="276.67" r="167.98" gradientTransform="matrix(-1.1123 2.3025 -2.5674 -1.2402 1164.8 575.53)" gradientUnits="userSpaceOnUse" xlink:href="#a"/>
 </defs>
 <g transform="translate(-88.52 -403.45)">
  <g transform="matrix(-.38462 -.87834 1.0095 -.29469 -217.39 732.43)">
   <g transform="translate(426.81 -80.459)">
    <path d="m-582.86 679.13c0 152.75-41.349 219.65-96.365 234.14l-27.084-19.733-27.48 18.196c-52.406-17.277-91.175-84.694-91.175-232.6 0-174.88 49.403-384.14 121.05-396.05 71.649 11.911 121.05 221.18 121.05 396.05z" fill="url(#g)"/>
    <g transform="translate(33.172 -11.729)">
     <path d="m-738.72 294.81c-71.649 11.911-121.06 221.19-121.06 396.06 0 147.91 38.781 215.32 91.188 232.59l27.469-18.188 27.094 19.719c43.496-11.453 78.425-55.689 91.156-149.19-2.0815 0.24982-4.2711 0.0943-6.5312-0.53125-4.0707-1.1266-7.8798-3.5965-11.156-7.0312-2.2141 14.504-7.185 27.896-14.719 38.688-25.522 36.558-87.023 16.119-127.94-28.688-39.185-42.913-45.613-88.029-15.406-119.66 3.8009-3.9796 7.8805-7.4899 12.219-10.5-4.0405-2.4554-7.4944-5.8956-9.9062-10.188-7.3277-13.039-2.2203-28.966 11.406-35.562 3.8325-1.8554 7.9256-2.7692 12-2.8438 10.412-0.19053 20.671 5.1591 25.938 14.531 3.7666 6.7026 4.2413 14.152 1.9688 20.719 22.831-0.42525 47.441 9.1473 69.656 30.031 15.344 14.424 25.557 32.446 31.094 51.281 4.2651-4.2069 9.9274-5.9254 16.094-4.2188 3.6198 1.0018 7.0173 3.0743 10.031 5.9375 0.29975-8.6636 0.46875-17.615 0.46875-26.906 0-174.88-49.413-384.15-121.06-396.06z" fill="#0046ff" fill-opacity=".5859"/>
     <g transform="matrix(.47891 .39421 -.27641 .47707 -457.29 977.57)" clip-path="url(#h)" opacity=".7" stroke="#000" stroke-linecap="square">
      <path transform="matrix(.21961 .40055 -.4167 .19697 -146.93 228.44)" d="m-868.57 158.08c0 50.495-51.167 91.429-114.29 91.429s-114.29-40.934-114.29-91.429 51.167-91.429 114.29-91.429 114.29 40.934 114.29 91.429z" stroke-width="19.632"/>
      <path transform="matrix(-.21961 .40055 .4167 .19697 -1008.7 228.44)" d="m-868.57 158.08c0 50.495-51.167 91.429-114.29 91.429s-114.29-40.934-114.29-91.429 51.167-91.429 114.29-91.429 114.29 40.934 114.29 91.429z" stroke-width="19.632"/>
      <path d="m-414.23-13.206c-6.1366 81.702-109.81 124.52-204.36 108.73-90.552-15.127-136.61-71.631-119.81-151.81 17.201-82.091 87.843-142.18 179.38-135.23s150.93 96.606 144.79 178.31z" fill="url(#f)" stroke-width="9"/>
      <path d="m-556.43 34.671c-0.22581 8.0329-9.9842 14.275-21.782 13.933s-21.19-7.1389-20.964-15.172 10.08-17.674 21.878-17.332 21.094 10.538 20.868 18.571z" stroke-width="9"/>
      <path d="m-477.66-62.917c31.627 13.666 49.587 44.174 43.77 75.36-6.5625 35.18-47.664 46.957-71.576 36.571-16.294-7.0772-18.687-34.052-31.163-46.254-14.381-14.064-15.967-30.615-9.8118-51.053 7.4017-24.578 37.155-28.291 68.781-14.625z" stroke-width="9"/>
      <path d="m-481.65-35.027c1.2246 14.686-10.382 27.621-25.907 28.872s-29.119-9.6534-30.344-24.34 10.382-27.621 25.907-28.872 29.119 9.6534 30.344 24.34z" fill="#fff" stroke-width="9"/>
      <path d="m-677.96-62.917c-31.627 13.666-49.587 44.174-43.77 75.36 6.5625 35.18 47.664 46.957 71.576 36.571 16.294-7.0772 18.687-34.052 31.163-46.254 14.381-14.064 15.967-30.615 9.8118-51.053-7.4017-24.578-37.155-28.291-68.781-14.625z" stroke-width="9"/>
      <path d="m-673.97-35.027c-1.2246 14.686 10.382 27.621 25.907 28.872s29.119-9.6534 30.344-24.34-10.382-27.621-25.907-28.872-29.119 9.6534-30.344 24.34z" fill="#fff" stroke-width="9"/>
     </g>
    </g>
   </g>
   <path d="m-156.05 598.68c0 152.75-41.349 219.65-96.365 234.14l-27.084-19.733-27.48 18.196c-52.406-17.277-91.175-84.694-91.175-232.6 0-174.88 49.403-384.14 121.05-396.05 71.649 11.911 121.05 221.18 121.05 396.05z" fill="none" stroke="#000" stroke-linejoin="round" stroke-width="8"/>
  </g>
  <path d="m372.35 662.37c-23.932-7.6254-48.221 3.9094-57.106 33.338-4.8761 16.149-8.8071 23.7-8.9913 30.895-0.16007 6.252 2.5788 13 9.1154 15.307 24.503 8.6468 32.237-2.3498 37.529-17.396 11.635-33.08 28.065-19.222 32.395-31.752 2.5345-7.3329 5.8908-22.255-12.942-30.392z" stroke="#000" stroke-linecap="square" stroke-width="9"/>
  <path d="m410.13 803.22c-17.586-17.934-18.226-44.815 4.0479-66.001 12.223-11.627 17.194-18.537 23.535-21.942 5.51-2.9585 12.768-3.5521 17.772 1.2453 18.755 17.983 12.42 29.841 1.3697 41.342-24.296 25.286-4.5237 33.714-13.76 43.224-5.4058 5.5653-17.218 15.282-32.964 2.132z" stroke="#000" stroke-linecap="square" stroke-width="9"/>
  <path transform="matrix(.82434 -.22374 .22452 .82721 615.84 285.69)" d="m-172.77 412.3c0 18.407-14.618 33.33-32.649 33.33s-32.649-14.922-32.649-33.33 14.618-33.33 32.649-33.33 32.649 14.922 32.649 33.33z" fill="url(#e)" stroke="#000" stroke-linecap="square" stroke-width="10.518"/>
  <path d="m467.91 603.82c45.426 9.1675 62.287 33.167 58.218 84.078l-5.4357 26.038c-18.55 18.983-56.365 48.935-95.839 24.658-57.359-35.276-77.388-84.367-76.815-106.2 8.2088-20.236 46.769-43.33 119.87-28.577z" fill="url(#d)" stroke="#000" stroke-linecap="square" stroke-width="9"/>
  <path d="m554.07 761.83c-24.22 6.6565-48.025-5.846-55.719-35.608-4.2224-16.332-7.8466-24.035-7.7412-31.232 0.0915-6.2533 3.0997-12.886 9.7237-14.927 24.831-7.6541 32.116 3.6448 36.799 18.891 10.295 33.521 27.269 20.336 31.092 33.03 2.2374 7.4289 4.9907 22.474-14.154 29.847z" stroke="#000" stroke-linecap="square" stroke-width="9"/>
  <path d="m459.53 595.55 44.367 15.975c-12.354-2.6039-21.526-3.7872-12.377 10.018l-40.773 2.4602z"/>
  <path d="m440.56 618.27c5.7372-24.454 28.102-39.381 57.92-31.904 16.363 4.1027 24.861 4.6039 31.131 8.138 5.448 3.0711 9.834 8.8847 8.4593 15.679-5.1531 25.467-18.56 26.462-34.19 23.283-34.363-6.99-30.901 14.222-43.877 11.509-7.5943-1.588-22.124-6.3653-19.443-26.705z" stroke="#000" stroke-linecap="square" stroke-width="9"/>
  <g transform="matrix(.96985 -.24371 .24371 .96985 -234.02 117.24)" stroke="#000" stroke-linecap="square">
   <path transform="matrix(.41226 -.11472 .11545 .41347 272.52 399.08)" d="m122.86 105.22c0 59.173-53.726 107.14-120 107.14s-120-47.969-120-107.14 53.726-107.14 120-107.14 120 47.969 120 107.14z" stroke-width="20.998"/>
   <path d="m538.02 590.06c-10.949 81.197-116.97 117.82-210.42 96.472-89.501-20.446-132.14-79.571-110.64-158.62 22.017-80.932 96.084-136.75 187.05-124.4s144.96 105.35 134.01 186.54z" fill="url(#c)" stroke-width="9"/>
   <path transform="matrix(.19558 .41282 -.4276 .17203 799.53 862.6)" d="m-868.57 158.08c0 50.495-51.167 91.429-114.29 91.429s-114.29-40.934-114.29-91.429 51.167-91.429 114.29-91.429 114.29 40.934 114.29 91.429z" stroke-width="19.632"/>
   <path d="m338.35 624.32c-1.0739 7.964-11.438 13.139-23.133 11.552s-20.316-9.3394-19.242-17.303 11.892-16.509 23.588-14.922 19.862 12.71 18.788 20.674z" stroke-width="9"/>
   <path d="m280.01 623.31s-12.402 24.091 11.895 28.161c11.502 1.9365 24.284-15.225 24.284-15.225s1.4939 16.029 15.596 24.959c12.582 7.9678 21.795 6.686 31.132 3.6516 12.801-4.16 14.982-15.913 14.982-15.913" fill="none" stroke-width="9"/>
   <g transform="matrix(.4063 .19054 -.18706 .42577 397.04 339.17)" stroke-width="19.704">
    <path d="m-141.12 505.79c-51.719 63.679-41.909 136.03 2.8948 160.38 32.897 17.881 68.312 25.497 100.15-2.5615 46.051-40.59 19.286-66.313 51.617-111.81 28.411-39.985 20.026-86.695-7.5366-104.07-32.957-20.776-95.402-5.613-147.12 58.066z"/>
    <g transform="translate(0 -12.379)">
     <path d="m10.378 529.19c1.5579 29.341-20.852 53.154-50.022 53.154s-54.108-23.813-55.666-53.154 20.852-53.154 50.022-53.154 54.108 23.813 55.666 53.154z" fill="#fff"/>
     <path d="m-71.101 544.24c-0.02051-0.0202 15.062-42.327 40.347-36.442 18.695 4.3516 22.019 34.62 22.019 34.62" fill="none"/>
    </g>
   </g>
   <g transform="matrix(.65946 -.06833 .06235 .70212 706.63 569.41)" stroke-width="13.166">
    <path d="m-394.82-68.084c42.228 29.076 58.906 77.018 40.319 118.24-20.967 46.494-85.327 49.521-117.24 27.464-21.744-15.03-16.611-53.074-31.083-73.954-16.682-24.068-13.705-47.448 1.928-73.704 18.8-31.575 63.845-27.117 106.07 1.9589z"/>
    <g transform="matrix(.99025 .13929 -.13929 .99025 -733.65 -477.41)">
     <path d="m383.04 397.1c0 20.891-19.083 37.846-42.597 37.846s-42.597-16.955-42.597-37.846 19.083-37.846 42.597-37.846 42.597 16.955 42.597 37.846z" fill="#fff"/>
     <path d="m309.84 403.6s5.8307-27.502 22.615-26.594c20.8 1.1255 24.611 25.412 24.611 25.412" fill="none"/>
    </g>
   </g>
  </g>
 </g>
</svg>
