<?xml version="1.0" encoding="UTF-8"?>
<svg viewBox="0 0 744.09447 1052.362179" xmlns="http://www.w3.org/2000/svg">
 <path d="m452.88 7.7714c-9.5959 0.11741-19.132 0.87267-28.311 4.2818-21.649 8.462-24.438 38.691-25.97 60.936 1.8938 26.305-7.8339 49.827-19.825 71.799l-1.8288 5.3919c6.29 5.6889 25.231-39.701 37.857-50.469 15.322-20.045 33.532-30.462 55.67-37.505 15.059-11.915 55.882-6.4175 53.329-9.3168-23.835-6.744-52.03 1.8109-56.109 2.3391-4.8413-15.043 7.7839-25.306 2.4507-47.417-5.718 0.07106-11.507-0.1101-17.264-0.03965zm166.5 40.003c-16.02-0.02251-34.526 6.5222-47.952 6.9381 13.36 14.952-0.33622 25.941 2.3409 43.849-2.9789 28.356 18.38 46.907 32.59 66.368 17.949 19.173-7.0973-39.354 17.886-18.634 14.3 17.345 8.0211 0.17448 13.607-11.616 11.504-21.715 30.839-51.509 8.4858-73.543-6.1838-10.25-15.996-13.345-26.957-13.361zm-178.46 126.59c-13.92 0.39867-32.758 17.72-27.798 33.739 0.02595 4.7481 0.28579 9.53 1.3534 14.154 12.884 10.621 43.031-18.236 38.808-39.487-2.2182-6.1139-6.916-8.561-12.363-8.405zm181.75 4.9558c-9.0633 0.05839-0.5734 32.619-5.5597 41.787-9.1253 17.8-12.877 40.407-34.09 40.161 0.49905 21.91-13.596 8.2491-20.264-2.3788 5.6972-12.228 3.6114-17.615-8.8882-24.105-12.13-17.956-29.427-69.294-52.012-33.541-3.5616 25.03 20.094 50.171 9.4734 76.398-4.3638 8.6861-10.338 6.9123-15.692 8.8807-29.603 10.885-10.133-7.9172-12.107-15.383-12.836-6.5366-63.476-22.988-44.441 7.5328-4.4255 3.8069-8.4415-2.8712-12.29-11.616s-7.5292-19.557-11.193-23.986c-13.9-20.258-46.222-4.0846-57.462-18.435 7.1698-28.794-12.169 15.951-18.874 21.449-21.41 19.734-25.851 50.024-28.859 79.173 39.015-24.203 71.677-43.346 74.288-43.056 1.1832 0.13145 0.71615 1.3983-2.1946 4.2025l-17.703 12.806-55.268 34.452c-0.0809 0.8114-0.13813 1.6109-0.21946 2.4184-19.576 11.438-35.697 29.177-51.866 46.267l50.952-37.743c-0.07679 0.6853-0.14 1.381-0.21946 2.0616 2.1258 30.878-19.785 59.729-5.2671 89.045 2.5106 34.649-31.832 28.84-45.977 49.121 1.1106 29.016-47.089 19.703-42.905 45.196 9.0698 2.1372 17.677-6.3613 25.165-11.022 21.156-19.792 45.311-36.801 72.569-44.681 22.38-4.4164 44.357-11.402 66.497-15.858 21.516 0.9248 36.879-1.4769 53.585-8.6032 7.4977 16.449 22.442-14.914 18.508 0.79292-20.869 16.838 32.054 16.696 7.3154 4.8368 0.56105-13.066 25.882-17.812 35.882-27.435-7.7178 12.696-26.461 28.375-23.336 50.469-2.6358 17.615-17.096 28.913-23.812 44.919-7.5064 10.94 20.619 3.5869 25.677 2.5374 10.718-18.272 3.0609 14.467 16.423-2.2202 11.949-12.386 6.5427-4.8648 13.095 2.2995 38.431 4.1013 77.287 1.722 115.88 2.141 25.704 5.6961 43.603-15.792 66.497-21.726 16.951 0.51338 29.89-13.308 46.892-14.392-0.48656-42.425 1.2985-84.975-1.6825-127.3-16.203-20.931-4.8382-53.223-24.36-71.918-15.045-20.006-40.603-27.931-55.195-45.95 4.3416-27.457-13.901-45.023-23.556-66.526-1.3478-0.75193-2.4641-1.0765-3.4016-1.0704zm-259.29 9.0393c-0.39677 0.12874-0.89411 1.8115-1.4265 6.1848 3.0835 12.705 2.8435-6.6446 1.4265-6.1848zm65.912 8.7618c2.769 1e-5 6.6936 5.8764 6.6936 11.299 0 2.251-5.1682 0.91186-7.9372 0.91186s-3.7674-5.9161-3.7674-8.1671 2.242-4.0439 5.011-4.0439zm92.393 8.1274c2.9997-1e-5 4.5721 0.17036 4.5721 3.1717s-1.2994 7.2226-4.1698 8.1671c-5.5078 1.8124-9.6197 3.0013-9.6197 0s6.2177-11.339 9.2174-11.339zm113.53 39.963c1.3153-0.09774 3.1483 1.2254 5.4865 5.0747-8.3509 13.748-10.184-4.7256-5.4865-5.0747zm-232.92 17.277c19.322 17.634 14.809 27.761 14.809 27.761l-14.809-27.761zm245.54 0.16703c3.6156 23.994-6.9723 2.6436 0 0zm-255.63 11.687c17.99 15.784 13.528 24.074 13.528 24.074l-13.528-24.074zm33.902 7.9773s22.878 12.68 64.339 17.801c-26.192 0.9891-46.334-5.0107-64.339-17.801zm6.9862 170.8c-0.85718 0.12749-1.8012 1.1912-2.7798 3.7664 8.1884 12.667 6.4944-4.3188 2.7798-3.7664zm7.9738 14.867c-15.86-0.20965-49.801 5.6742-26.847 16.85 2.1875 3.0978 59.338-12.501 32.297-16.413-1.3091-0.28199-3.1842-0.40615-5.45-0.4361zm1.2802 17.246c-2.3647 0.08447-5.2544 2.2388-7.7543 8.405 16.377 4.7781 13.797-8.6208 7.7543-8.405z"/>
 <path d="m257.45 382.35-41.917 31.043c7.8148-2.9919 15.364-6.8109 22.458-11.458 6.6354-6.1361 13.055-12.816 19.459-19.585zm52.086-48.685c0.27667-2.7748 0.58824-5.5983 0.87785-8.405-15.295 9.4882-31.46 19.672-47.331 29.893 5.1763-1.1577 10.412-1.9118 15.692-2.2598l30.761-19.228zm-30.761 19.228-0.87785 0.5154c-12.597 3.521-23.712 9.8102-33.98 17.603l29.627-14.867-45.173 28.149c-1.7989 1.7041-3.5746 3.4758-5.3402 5.2333l1.0242-2.5373-5.7792 3.6078c-2.251 3.2894-4.3041 6.689-6.1815 10.189-2.5971 2.7368-5.1692 5.4745-7.7543 8.2067l5.706-4.2025c-9.9456 20.267-14.754 43.388-19.861 66.05l29.627-73.306 60.425-44.76c-0.48696 0.02498-0.97658 0.08687-1.4631 0.11893zm-88.589 117.95-20.3 50.271c5.1646-7.026 9.6794-14.623 13.424-22.638 2.6128-8.9654 4.7656-18.267 6.8765-27.633zm14.155-61.848-41.917 31.043c7.8148-2.9919 15.364-6.8109 22.458-11.458 6.6355-6.1361 13.055-12.816 19.459-19.585zm13.936-18.396c2.6601-3.8871 5.5781-7.6432 8.8516-11.18l-48.464 35.88 39.613-24.699zm-39.613 24.699-7.0959 4.4404c6.0974-6.7079 26.197-21.206 51.573-38.298l3.9869-2.022c-0.33222-0.01944-0.65632-0.02427-0.98758-0.03965 11.567-7.7552 24.071-15.934 36.943-24.224-17.587 3.9333-34.331 12.395-48.391 24.501-26.519 2.3802-50.191 16.739-73.666 30.448l28.274-20.933c-18.832 4.6787-34.361 15.493-48.611 28.506l19.166-6.8984c-7.8716 4.5897-15.732 9.0909-23.665 13.004-0.90269 0.26483-1.7986 0.51155-2.7067 0.75327-2.9279 2.8812-5.8072 5.8226-8.6687 8.8014-0.75858 0.10001-1.5137 0.19842-2.2678 0.31717l6.0718-7.9292c-2.4708 0.54109-4.9646 0.97398-7.4617 1.348-2.9624 2.7142-5.7541 5.6179-8.4127 8.6428l-1.6094 0.43611c-3.5835 1.002-7.1061 2.1964-10.607 3.5285-1.1671 0.44402-2.3158 0.91219-3.4748 1.3876s-2.3233 0.96273-3.4748 1.4669c-5.7576 2.5209-11.434 5.3632-17.045 8.405-2.2445 1.2167-4.4649 2.4636-6.6936 3.7267s-4.4764 2.5573-6.6936 3.8457-4.4102 2.5928-6.6204 3.8853c-0.96295 0.56313-1.9274 1.1041-2.8896 1.6651l29.481-10.586c-7.2192 5.2075-13.901 11.283-19.825 18.158l7.352-3.6871c-18.37 11.854-33.689 29.298-43.417 49.954l44.258-41.47 0.03658-0.03965 20.41-19.109 7.4983-3.7664c-0.91506 1.4044-1.8197 2.8107-2.7067 4.2421l12.034-8.9204 2.597-1.3083c-5.7281 6.0269-11.48 11.92-17.411 17.405-0.78805 0.51618-1.5787 1.0103-2.3775 1.5066-4.8324 8.4556-9.3497 17.169-13.899 25.81l0.18288-0.15858 34.455-45.038 4.0966-2.0616 24.507-12.29 16.789-8.405c-7.3138 5.5505-14.212 11.872-20.885 18.515l4.0966-10.11c-1.8322 1.9796-3.5608 4.0517-5.1939 6.1451-0.81656 1.0467-1.6074 2.0985-2.3775 3.1717s-1.5054 2.1526-2.2312 3.251-1.4378 2.2081-2.1215 3.3303c-1.092 1.7924-2.1174 3.6224-3.109 5.4712-2.5971 2.7368-5.1692 5.4745-7.7543 8.2067l5.706-4.2025c-2.4688 5.0308-4.6315 10.247-6.5473 15.581-0.44959 1.2517-0.89192 2.5015-1.3168 3.7664-1.2746 3.7948-2.4568 7.6473-3.548 11.537-1.1593 4.1326-2.2348 8.2904-3.2554 12.489-3.6896 0.5058-7.3484 1.2412-10.973 2.1409l10.717-17.761c-1.502 1.1277-2.9787 2.2818-4.4258 3.4889-0.72354 0.60354-1.4486 1.201-2.158 1.8237s-1.3899 1.2616-2.0849 1.903-1.4046 1.3227-2.0849 1.9823c-1.3605 1.3191-2.687 2.6548-3.9869 4.0439-2.3174 2.4765-4.5423 5.0489-6.657 7.731-9.7376 3.5181-19.036 8.4642-27.579 14.629-4.5946 4.8922-9.5308 9.3907-14.777 13.44l2.2678-2.9339c-2.5282 2.4392-4.9668 4.9685-7.2788 7.6518l37.967-19.07c-2.3107 3.8966-4.428 7.9437-6.3278 12.092-0.40591 0.8863-0.78412 1.7599-1.1705 2.6562-1.9317 4.4826-3.6265 9.0965-5.0476 13.797-0.37063 1.2262-0.68978 2.449-1.0242 3.6872l-11.522 8.5238c3.5594-1.3627 7.0683-2.9277 10.498-4.6385-0.07736 0.32655-0.14465 0.66402-0.21946 0.99108-0.43907 1.9212-0.82049 3.8445-1.1705 5.7884l5.3402-8.8411c2.7259-1.491 5.397-3.0855 8.0104-4.7971 6.6127-6.1154 13.003-12.761 19.386-19.506l-23.043 17.087 20.447-33.937 15.948-8.0085c-1.1106 4.7155-2.1607 9.4698-3.2188 14.193-3.3907 3.5486-6.7683 7.1101-10.132 10.665l9.254-6.8588c-0.05978 0.26571-0.12302 0.52733-0.18288 0.79292l0.40235-0.91186 16.204-12.052c-5.605 7.1542-10.471 15.025-14.411 23.391l64.705-60.619c-26.002 6.46-45.7 24.652-64.412 44.126l5.962-14.788 5.3402-2.6959c-1.4719 0.07549-2.9221 0.17723-4.3892 0.31717l20.264-50.152 60.425-44.76 16.789-8.405c-14.282 10.838-26.918 24.602-39.576 37.981l27.433-20.338zm-27.433 20.338-41.917 31.043c7.8148-2.9919 15.364-6.8109 22.458-11.458 6.6354-6.1361 13.055-12.816 19.459-19.585zm-67.302 88.569-20.264 50.192c0.64557-0.8783 1.2769-1.8004 1.902-2.6959s1.2247-1.7836 1.8288-2.6959c3.6247-5.4741 6.8847-11.234 9.6929-17.246 2.2096-7.5816 4.0811-15.417 5.8889-23.312 0.32376-1.4137 0.63124-2.8235 0.951-4.2421zm-56.511 7.7309c3.943-3.8031 8.1155-7.3352 12.509-10.506 1.318-1.4034 2.6204-2.8136 3.8772-4.2818 4.745-7.7614 9.1281-15.974 13.497-24.263 7.4231-2.9274 14.6-6.593 21.361-11.022 6.6355-6.1361 13.055-12.816 19.459-19.585l-40.271 29.814-0.40235 0.5154c0.06512-0.12362 0.15435-0.23316 0.21946-0.35682l-1.4631 1.0704 1.0242-0.39646-29.81 39.012zm44.148-65.495c1.6732-2.9276 3.3948-5.838 5.1574-8.6825l-25.202 18.634c6.931-2.6568 13.665-5.9887 20.044-9.9512zm-37.93-2.3788-48.172 17.325c4.1364-0.27062 8.2725-0.74603 12.363-1.4669 2.0452-0.36043 4.0829-0.79521 6.1084-1.2687s4.035-0.99902 6.0352-1.5858c7.9328-3.913 15.794-8.4142 23.665-13.004zm67.521-36.99c1.5411-1.4119 3.1573-2.7678 4.7916-4.0835l-14.265 5.1143c3.1644-0.20702 6.3329-0.56045 9.4734-1.0308zm-9.4734 1.0308 24.507-12.29c-29.201 1.4977-57.664 15.775-77.616 38.932l53.11-26.642zm24.507-12.29c-3.6326 2.1744-7.0158 4.5789-10.242 7.1759l6.5838-2.3788 3.6577-4.7972zm-3.6577 4.7972-3.9137 5.1144c1.6293-0.35681 3.2505-0.75971 4.8647-1.1894 2.3696-2.3318 4.7704-4.635 7.2057-6.8588l-8.1567 2.9338zm56.767-31.439c-28.451-7.2848-59.424-2.0658-84.493 14.233l84.493-14.233zm57.828-9.7529-3.0725 7.5724 4.3161-2.6959c5.0003-4.7368 10.166-9.1994 15.545-13.281l-16.789 8.405zm-57.792 20.775c-3.2749 2.3624-6.4423 4.8951-9.4734 7.612-10.42 2.0122-20.579 5.6084-30.103 10.625l10.607-7.8103 28.969-10.427zm25.787 32.351c-28.179 16.868-43.234 47.384-58.706 76.755l19.825-25.929c-3.5678 8.5507-6.2409 17.543-7.9006 26.761l46.782-77.587zm-58.706 76.755-32.371 42.302c6.7512-5.2106 13.053-11.135 18.691-17.722 4.8042-7.8584 9.2573-16.185 13.68-24.581z" fill="#008000"/>
</svg>
